<?xml version="1.0" encoding="UTF-8"?>
<!DOCTYPE svg PUBLIC "-//W3C//DTD SVG 1.1//EN" "http://www.w3.org/Graphics/SVG/1.1/DTD/svg11.dtd">
<svg xmlns="http://www.w3.org/2000/svg" version="1.1" width="1334px" height="2048px" style="shape-rendering:geometricPrecision; text-rendering:geometricPrecision; image-rendering:optimizeQuality; fill-rule:evenodd; clip-rule:evenodd" xmlns:xlink="http://www.w3.org/1999/xlink">
<g><path style="opacity:0.991" fill="#00aced" d="M 673.5,-0.5 C 674.833,-0.5 676.167,-0.5 677.5,-0.5C 894.799,217.965 1112.3,436.299 1330,654.5C 1330.5,811.5 1330.67,968.5 1330.5,1125.5C 1289.5,1125.5 1248.5,1125.5 1207.5,1125.5C 1207.67,986.166 1207.5,846.833 1207,707.5C 1029.97,530.139 852.639,353.139 675,176.5C 491.306,360.527 307.306,544.194 123,727.5C 122.5,901.833 122.333,1076.17 122.5,1250.5C 81.5,1250.5 40.5,1250.5 -0.5,1250.5C -0.5,1058.5 -0.5,866.5 -0.5,674.5C 224.861,450.139 449.527,225.139 673.5,-0.5 Z"/></g>
<g><path style="opacity:0.993" fill="#000000" d="M 1333.5,1249.5 C 1333.5,1332.5 1333.5,1415.5 1333.5,1498.5C 984.167,1498.5 634.833,1498.5 285.5,1498.5C 285.333,1242.17 285.5,985.833 286,729.5C 415.707,599.959 545.207,470.293 674.5,340.5C 675.72,341.711 676.887,341.711 678,340.5C 814,475.833 950,611.167 1086,746.5C 1086.5,914.5 1086.67,1082.5 1086.5,1250.5C 903.167,1250.5 719.833,1250.5 536.5,1250.5C 536.5,1207.17 536.5,1163.83 536.5,1120.5C 676.167,1120.5 815.833,1120.5 955.5,1120.5C 955.667,1013.17 955.5,905.833 955,798.5C 862.333,705.167 769.667,611.833 677,518.5C 590,606.5 503,694.5 416,782.5C 415.5,981.5 415.333,1180.5 415.5,1379.5C 679.5,1379.5 943.5,1379.5 1207.5,1379.5C 1207.5,1336.17 1207.5,1292.83 1207.5,1249.5C 1249.5,1249.5 1291.5,1249.5 1333.5,1249.5 Z"/></g>
<g><path style="opacity:0.985" fill="#00aced" d="M 543.5,764.5 C 583.5,764.5 623.5,764.5 663.5,764.5C 663.5,805.5 663.5,846.5 663.5,887.5C 623.5,887.5 583.5,887.5 543.5,887.5C 543.5,846.5 543.5,805.5 543.5,764.5 Z"/></g>
<g><path style="opacity:0.985" fill="#00aced" d="M 721.5,764.5 C 761.5,764.5 801.5,764.5 841.5,764.5C 841.5,805.5 841.5,846.5 841.5,887.5C 801.5,887.5 761.5,887.5 721.5,887.5C 721.5,846.5 721.5,805.5 721.5,764.5 Z"/></g>
<g><path style="opacity:0.981" fill="#00aced" d="M 543.5,931.5 C 583.5,931.5 623.5,931.5 663.5,931.5C 663.5,973.833 663.5,1016.17 663.5,1058.5C 623.5,1058.5 583.5,1058.5 543.5,1058.5C 543.5,1016.17 543.5,973.833 543.5,931.5 Z"/></g>
<g><path style="opacity:0.981" fill="#00aced" d="M 721.5,931.5 C 761.5,931.5 801.5,931.5 841.5,931.5C 841.5,973.833 841.5,1016.17 841.5,1058.5C 801.5,1058.5 761.5,1058.5 721.5,1058.5C 721.5,1016.17 721.5,973.833 721.5,931.5 Z"/></g>
<g><path style="opacity:0.921" fill="#000000" d="M 260.5,1583.5 C 274.843,1581.34 281.009,1587.34 279,1601.5C 275.546,1608.82 269.713,1612.48 261.5,1612.5C 249.877,1611.28 245.71,1604.95 249,1593.5C 251.566,1588.64 255.399,1585.31 260.5,1583.5 Z"/></g>
<g><path style="opacity:0.923" fill="#000000" d="M 294.5,1583.5 C 308.896,1581.4 315.063,1587.4 313,1601.5C 309.546,1608.82 303.713,1612.48 295.5,1612.5C 283.821,1611.15 279.654,1604.81 283,1593.5C 285.566,1588.64 289.399,1585.31 294.5,1583.5 Z"/></g>
<g><path style="opacity:0.925" fill="#000000" d="M 645.5,1583.5 C 659.843,1581.34 666.009,1587.34 664,1601.5C 660.546,1608.82 654.713,1612.48 646.5,1612.5C 633.807,1610.45 629.974,1603.45 635,1591.5C 637.855,1587.79 641.355,1585.12 645.5,1583.5 Z"/></g>
<g><path style="opacity:0.955" fill="#000000" d="M 808.5,1602.5 C 846.313,1603.31 865.313,1622.65 865.5,1660.5C 862.634,1682.17 859.634,1703.83 856.5,1725.5C 967.877,1725.99 1079.21,1725.49 1190.5,1724C 1198.79,1721.38 1204.96,1716.21 1209,1708.5C 1213.04,1686.24 1216.7,1663.91 1220,1641.5C 1222.2,1633.96 1226.7,1628.13 1233.5,1624C 1251.17,1614.19 1269.83,1611.86 1289.5,1617C 1304.66,1622.83 1314.16,1633.67 1318,1649.5C 1322.77,1681.5 1314.77,1709.84 1294,1734.5C 1289.12,1739.05 1283.96,1743.21 1278.5,1747C 1255.84,1747.5 1233.17,1747.67 1210.5,1747.5C 1210.23,1743.53 1209.06,1739.86 1207,1736.5C 1202.52,1741.65 1197.02,1745.15 1190.5,1747C 1046.83,1747.5 903.167,1747.67 759.5,1747.5C 759.337,1749.86 759.503,1752.19 760,1754.5C 760.808,1757.73 761.808,1760.73 763,1763.5C 756.542,1768.09 749.375,1769.59 741.5,1768C 738.619,1766.75 736.786,1764.58 736,1761.5C 735.501,1756.85 735.334,1752.18 735.5,1747.5C 707.831,1747.67 680.165,1747.5 652.5,1747C 646.574,1745.42 642.074,1741.92 639,1736.5C 636.623,1740.09 634.123,1743.59 631.5,1747C 515.833,1747.67 400.167,1747.67 284.5,1747C 278.574,1745.42 274.074,1741.92 271,1736.5C 268.132,1739.74 265.632,1743.24 263.5,1747C 242.159,1747.17 220.826,1747.67 199.5,1748.5C 191.26,1769.58 176.927,1785.08 156.5,1795C 126.304,1809.31 95.3043,1811.31 63.5,1801C 28.5195,1786.38 12.0195,1760.21 14,1722.5C 16.2711,1706.21 25.4377,1699.04 41.5,1701C 43.7538,1702.38 45.9205,1703.88 48,1705.5C 48.6667,1706.5 48.6667,1707.5 48,1708.5C 37.7904,1719.88 35.1237,1732.88 40,1747.5C 49.5622,1769.05 66.0622,1781.55 89.5,1785C 119.675,1788.5 145.508,1779.66 167,1758.5C 169.416,1755.34 171.582,1752 173.5,1748.5C 166.173,1747.62 158.84,1746.79 151.5,1746C 148.452,1745.39 145.952,1743.89 144,1741.5C 142.28,1734.27 143.78,1727.94 148.5,1722.5C 154.073,1723.86 159.74,1724.69 165.5,1725C 193.498,1725.5 221.498,1725.67 249.5,1725.5C 253.56,1701.03 257.56,1676.53 261.5,1652C 261.091,1646.71 260.091,1641.54 258.5,1636.5C 265.769,1630.92 273.769,1629.09 282.5,1631C 286.926,1634.79 288.592,1639.62 287.5,1645.5C 287.442,1650.55 286.942,1655.55 286,1660.5C 283.35,1671.77 281.016,1683.1 279,1694.5C 276.468,1705.16 278.968,1714.33 286.5,1722C 288.717,1723.28 291.051,1724.28 293.5,1725C 401.499,1725.5 509.499,1725.67 617.5,1725.5C 621.135,1703.15 624.969,1680.82 629,1658.5C 629.382,1650.77 629.049,1643.1 628,1635.5C 636.042,1629.96 644.376,1628.96 653,1632.5C 654.984,1636.25 656.15,1640.25 656.5,1644.5C 653.784,1661.58 650.617,1678.58 647,1695.5C 644.933,1705.74 647.433,1714.58 654.5,1722C 656.717,1723.28 659.051,1724.28 661.5,1725C 673.495,1725.5 685.495,1725.67 697.5,1725.5C 698.721,1687.48 717.221,1662.48 753,1650.5C 759.917,1620.83 778.417,1604.83 808.5,1602.5 Z M 809.5,1624.5 C 824.256,1624.11 834.09,1630.78 839,1644.5C 840.519,1653.78 840.853,1663.11 840,1672.5C 836.413,1690.02 833.913,1707.69 832.5,1725.5C 824.5,1725.5 816.5,1725.5 808.5,1725.5C 810.802,1706.86 813.802,1688.36 817.5,1670C 808.492,1656.66 795.825,1649.83 779.5,1649.5C 783.49,1633.84 793.49,1625.5 809.5,1624.5 Z M 1261.5,1636.5 C 1284.64,1633.47 1295.97,1643.64 1295.5,1667C 1294.93,1690.06 1286.27,1709.39 1269.5,1725C 1256.84,1725.5 1244.17,1725.67 1231.5,1725.5C 1235.25,1698.78 1239.41,1672.11 1244,1645.5C 1249.07,1640.87 1254.91,1637.87 1261.5,1636.5 Z M 774.5,1670.5 C 780.746,1671.19 786.413,1673.36 791.5,1677C 788.511,1692.76 785.678,1708.6 783,1724.5C 776.924,1725.48 770.758,1725.81 764.5,1725.5C 767.32,1707.07 770.654,1688.73 774.5,1670.5 Z M 747.5,1676.5 C 748.097,1676.74 748.43,1677.24 748.5,1678C 745.23,1693.79 742.23,1709.62 739.5,1725.5C 733.5,1725.5 727.5,1725.5 721.5,1725.5C 722.08,1704.66 730.747,1688.33 747.5,1676.5 Z"/></g>
<g><path style="opacity:0.925" fill="#000000" d="M 72.5,1822.5 C 87.1934,1822.53 92.0267,1829.53 87,1843.5C 81.4766,1850.56 74.31,1853.06 65.5,1851C 59.9985,1849.18 56.9985,1845.35 56.5,1839.5C 57.814,1829.86 63.1473,1824.19 72.5,1822.5 Z"/></g>
<g><path style="opacity:0.923" fill="#000000" d="M 106.5,1822.5 C 120.01,1822.17 125.176,1828.5 122,1841.5C 116.875,1850.1 109.375,1853.27 99.5,1851C 91.7908,1847.67 89.2908,1841.84 92,1833.5C 94.8214,1827.02 99.6547,1823.36 106.5,1822.5 Z"/></g>
<g><path style="opacity:0.955" fill="#00aced" d="M 1009.5,2047.5 C 1007.17,2047.5 1004.83,2047.5 1002.5,2047.5C 995.044,2045.55 989.877,2040.89 987,2033.5C 984.086,2023.35 982.253,2013.02 981.5,2002.5C 963.83,2002.33 946.164,2002.5 928.5,2003C 926.735,2006.63 925.568,2010.46 925,2014.5C 924.272,2023.93 924.606,2033.26 926,2042.5C 922.002,2044.88 917.835,2046.55 913.5,2047.5C 911.167,2047.5 908.833,2047.5 906.5,2047.5C 904.18,2046.58 902.013,2045.25 900,2043.5C 897.757,2039.12 896.59,2034.45 896.5,2029.5C 897.79,2017.01 900.956,2005.01 906,1993.5C 920.414,1962.16 937.247,1932.33 956.5,1904C 953.65,1901.21 951.816,1898.05 951,1894.5C 960.384,1888.16 970.551,1886.32 981.5,1889C 982.667,1889.5 983.5,1890.33 984,1891.5C 999.671,1883.59 1007.84,1888.42 1008.5,1906C 1007,1937.51 1007.5,1969.01 1010,2000.5C 1010.86,2015.11 1015.02,2028.61 1022.5,2041C 1022.36,2041.77 1022.02,2042.44 1021.5,2043C 1017.57,2045.03 1013.57,2046.53 1009.5,2047.5 Z M 978.5,1909.5 C 980.206,1935.17 981.206,1961.17 981.5,1987.5C 965.819,1987.83 950.152,1987.5 934.5,1986.5C 940.063,1975.04 945.896,1963.71 952,1952.5C 960.855,1938.11 969.689,1923.78 978.5,1909.5 Z"/></g>
<g><path style="opacity:0.953" fill="#00aced" d="M 184.5,2047.5 C 179.833,2047.5 175.167,2047.5 170.5,2047.5C 164.085,2042.93 161.418,2036.6 162.5,2028.5C 163.171,2016.12 164.337,2003.79 166,1991.5C 169.344,1968.11 172.677,1944.78 176,1921.5C 162.376,1934.74 151.709,1950.07 144,1967.5C 135.399,1986.47 128.899,2006.14 124.5,2026.5C 116.068,2033.71 106.735,2035.21 96.5,2031C 92.8957,2028.29 90.3957,2024.79 89,2020.5C 85.7115,2011.35 83.0448,2002.01 81,1992.5C 76,1968.83 71,1945.17 66,1921.5C 60.3582,1953.02 55.6915,1984.68 52,2016.5C 50.3953,2025.46 51.8953,2033.79 56.5,2041.5C 53.212,2044.31 49.5453,2046.31 45.5,2047.5C 41.8333,2047.5 38.1667,2047.5 34.5,2047.5C 28.7535,2045.73 25.5868,2041.73 25,2035.5C 25.2764,2016.4 26.943,1997.4 30,1978.5C 33.2306,1956.28 36.7306,1934.12 40.5,1912C 38.4303,1907.19 36.097,1902.53 33.5,1898C 46.389,1888.57 60.0557,1886.9 74.5,1893C 78.1872,1896.21 81.0206,1900.04 83,1904.5C 87.5966,1916.88 91.2633,1929.55 94,1942.5C 98.169,1964.02 102.836,1985.35 108,2006.5C 117.15,1971.53 133.15,1940.2 156,1912.5C 167.059,1899.59 180.893,1891.59 197.5,1888.5C 200.579,1888.8 203.079,1890.13 205,1892.5C 206.534,1896.71 206.867,1901.04 206,1905.5C 200.294,1941.45 194.96,1977.45 190,2013.5C 189.333,2019.83 189.333,2026.17 190,2032.5C 191.099,2035.86 192.599,2039.03 194.5,2042C 191.233,2044.13 187.9,2045.96 184.5,2047.5 Z"/></g>
<g><path style="opacity:0.951" fill="#00aced" d="M 360.5,2047.5 C 354.5,2047.5 348.5,2047.5 342.5,2047.5C 335.944,2046.32 329.277,2044.99 322.5,2043.5C 318.604,2044.46 314.938,2045.8 311.5,2047.5C 307.5,2047.5 303.5,2047.5 299.5,2047.5C 296.609,2046.12 294.109,2044.12 292,2041.5C 290.025,2026.16 290.358,2010.83 293,1995.5C 297.058,1968.15 301.225,1940.82 305.5,1913.5C 304.354,1908.2 302.354,1903.2 299.5,1898.5C 308.634,1891.06 318.968,1888.23 330.5,1890C 333.321,1892.14 334.654,1894.97 334.5,1898.5C 341.197,1898.45 347.864,1897.95 354.5,1897C 367.512,1894.83 380.512,1892.66 393.5,1890.5C 396.706,1910.81 387.873,1920.81 367,1920.5C 355.386,1920.03 343.886,1918.69 332.5,1916.5C 330.315,1932.45 327.648,1948.28 324.5,1964C 337.401,1966.51 350.067,1965.67 362.5,1961.5C 363.712,1976.62 356.712,1983.96 341.5,1983.5C 335.166,1983.31 328.999,1982.31 323,1980.5C 319.446,1995.27 317.613,2010.27 317.5,2025.5C 331.837,2025.67 346.171,2025.5 360.5,2025C 367.675,2024.3 374.509,2022.47 381,2019.5C 384.328,2026.13 384.328,2032.8 381,2039.5C 379.269,2041.62 377.102,2043.12 374.5,2044C 369.776,2045.49 365.109,2046.66 360.5,2047.5 Z"/></g>
<g><path style="opacity:0.953" fill="#00aced" d="M 575.5,2047.5 C 571.833,2047.5 568.167,2047.5 564.5,2047.5C 560.278,2046.45 557.445,2043.78 556,2039.5C 555.283,2035.86 554.783,2032.2 554.5,2028.5C 555.655,2012.77 557.322,1997.1 559.5,1981.5C 537.5,1981.5 515.5,1981.5 493.5,1981.5C 491.67,1995.47 490.004,2009.47 488.5,2023.5C 488.632,2029.82 490.298,2035.66 493.5,2041C 493.355,2041.77 493.022,2042.44 492.5,2043C 489.185,2044.83 485.851,2046.33 482.5,2047.5C 478.833,2047.5 475.167,2047.5 471.5,2047.5C 467.278,2046.45 464.445,2043.78 463,2039.5C 462.116,2035.89 461.616,2032.22 461.5,2028.5C 465.475,1989.82 470.808,1951.32 477.5,1913C 476.208,1907.91 474.208,1903.08 471.5,1898.5C 480.634,1891.06 490.968,1888.23 502.5,1890C 503.333,1890.83 504.167,1891.67 505,1892.5C 506.476,1897.08 506.81,1901.74 506,1906.5C 503.048,1926.21 499.881,1945.88 496.5,1965.5C 518.5,1965.5 540.5,1965.5 562.5,1965.5C 564.948,1948.14 567.615,1930.81 570.5,1913.5C 568.898,1907.99 567.065,1902.66 565,1897.5C 574.278,1890.84 584.445,1888.34 595.5,1890C 597.049,1891.21 598.215,1892.71 599,1894.5C 599.667,1898.5 599.667,1902.5 599,1906.5C 592.353,1945.21 586.52,1984.05 581.5,2023C 581.611,2029.49 583.277,2035.49 586.5,2041C 586.355,2041.77 586.022,2042.44 585.5,2043C 582.185,2044.83 578.851,2046.33 575.5,2047.5 Z"/></g>
<g><path style="opacity:0.954" fill="#00aced" d="M 804.5,2047.5 C 799.167,2047.5 793.833,2047.5 788.5,2047.5C 781.411,2046.03 775.578,2042.36 771,2036.5C 762.608,2023 755.941,2008.67 751,1993.5C 742.656,1967.44 734.323,1941.44 726,1915.5C 720.35,1947.4 715.35,1979.4 711,2011.5C 710.333,2018.5 710.333,2025.5 711,2032.5C 712.099,2035.86 713.599,2039.03 715.5,2042C 711.741,2043.88 708.075,2045.71 704.5,2047.5C 700.5,2047.5 696.5,2047.5 692.5,2047.5C 684.109,2042.72 681.109,2035.38 683.5,2025.5C 683.636,2015.44 684.469,2005.44 686,1995.5C 690.004,1968.31 694.171,1941.14 698.5,1914C 697.501,1908.49 695.501,1903.33 692.5,1898.5C 704.378,1889.19 717.378,1887.02 731.5,1892C 736.382,1895.21 740.215,1899.38 743,1904.5C 747.917,1914.25 752.25,1924.25 756,1934.5C 765.474,1961.59 774.141,1988.92 782,2016.5C 786.71,1981.36 792.21,1946.36 798.5,1911.5C 795.452,1907.08 793.285,1902.41 792,1897.5C 801.278,1890.84 811.445,1888.34 822.5,1890C 823.333,1890.83 824.167,1891.67 825,1892.5C 826.555,1897.38 826.888,1902.38 826,1907.5C 819.403,1946.08 813.57,1984.75 808.5,2023.5C 808.856,2029.73 810.523,2035.57 813.5,2041C 813.241,2042.26 812.574,2043.26 811.5,2044C 809.075,2045.21 806.741,2046.38 804.5,2047.5 Z"/></g>
<g><path style="opacity:0.953" fill="#00aced" d="M 1283.5,2047.5 C 1280.5,2047.5 1277.5,2047.5 1274.5,2047.5C 1270.25,2046.78 1267.09,2044.45 1265,2040.5C 1263.19,2026.49 1263.53,2012.49 1266,1998.5C 1270.08,1969.77 1274.58,1941.1 1279.5,1912.5C 1277.64,1907.95 1275.64,1903.45 1273.5,1899C 1275.54,1896.31 1278.21,1894.31 1281.5,1893C 1286.84,1890.89 1292.34,1889.39 1298,1888.5C 1305.42,1888.99 1308.92,1892.99 1308.5,1900.5C 1302.02,1938.74 1296.18,1977.07 1291,2015.5C 1289.44,2024.73 1290.94,2033.4 1295.5,2041.5C 1291.68,2044.08 1287.68,2046.08 1283.5,2047.5 Z"/></g>
<g><path style="opacity:0.954" fill="#00aced" d="M 1136.5,2047.5 C 1132.5,2047.5 1128.5,2047.5 1124.5,2047.5C 1120.18,2046.02 1117.35,2043.02 1116,2038.5C 1115.33,2031.17 1115.33,2023.83 1116,2016.5C 1119.87,1982.09 1125.03,1947.93 1131.5,1914C 1118.17,1915.33 1104.83,1916.67 1091.5,1918C 1089.04,1911.6 1088.87,1905.1 1091,1898.5C 1093.48,1894.69 1096.98,1892.52 1101.5,1892C 1109.17,1891.33 1116.83,1891.33 1124.5,1892C 1136.78,1894.02 1149.11,1895.52 1161.5,1896.5C 1174.57,1895.38 1187.57,1893.71 1200.5,1891.5C 1205.52,1910.31 1198.35,1919.64 1179,1919.5C 1171.82,1918.93 1164.65,1918.26 1157.5,1917.5C 1152.34,1949.44 1147.51,1981.44 1143,2013.5C 1142.33,2019.83 1142.33,2026.17 1143,2032.5C 1143.78,2035.53 1144.95,2038.36 1146.5,2041C 1146.36,2041.77 1146.02,2042.44 1145.5,2043C 1142.41,2044.55 1139.41,2046.05 1136.5,2047.5 Z"/></g>
</svg>
